<svg width="21" height="21" viewBox="0 0 21 21" fill="none" xmlns="http://www.w3.org/2000/svg">
<path d="M20.7141 8.45988H19.875V8.41665H10.5V12.5833H16.387C15.5281 15.0088 13.2203 16.75 10.5 16.75C7.04843 16.75 4.24999 13.9515 4.24999 10.5C4.24999 7.04842 7.04843 4.24998 10.5 4.24998C12.0932 4.24998 13.5427 4.85102 14.6463 5.83279L17.5927 2.88644C15.7323 1.15258 13.2437 0.083313 10.5 0.083313C4.74739 0.083313 0.0833282 4.74738 0.0833282 10.5C0.0833282 16.2526 4.74739 20.9166 10.5 20.9166C16.2526 20.9166 20.9167 16.2526 20.9167 10.5C20.9167 9.80154 20.8448 9.11977 20.7141 8.45988Z" fill="#FFC107"/>
<path d="M1.28438 5.65154L4.70677 8.16144C5.63282 5.86873 7.87552 4.24998 10.5 4.24998C12.0932 4.24998 13.5427 4.85102 14.6464 5.83279L17.5927 2.88644C15.7323 1.15258 13.2438 0.083313 10.5 0.083313C6.49896 0.083313 3.02917 2.34217 1.28438 5.65154Z" fill="#FF3D00"/>
<path d="M10.5 20.9167C13.1906 20.9167 15.6354 19.887 17.4839 18.2125L14.2599 15.4844C13.1789 16.3064 11.8581 16.7511 10.5 16.75C7.79062 16.75 5.4901 15.0224 4.62344 12.6115L1.22656 15.2286C2.95052 18.6021 6.45156 20.9167 10.5 20.9167Z" fill="#4CAF50"/>
<path d="M20.7141 8.45992H19.875V8.41669H10.5V12.5834H16.387C15.9761 13.7377 15.2361 14.7465 14.2583 15.4849L14.2599 15.4839L17.4839 18.212C17.2557 18.4193 20.9167 15.7084 20.9167 10.5C20.9167 9.80158 20.8448 9.11981 20.7141 8.45992Z" fill="#1976D2"/>
</svg>
